<?xml version="1.0" standalone="no"?>
<!DOCTYPE svg PUBLIC "-//W3C//DTD SVG 20010904//EN"
 "http://www.w3.org/TR/2001/REC-SVG-20010904/DTD/svg10.dtd">
<svg version="1.0" xmlns="http://www.w3.org/2000/svg"
 width="331.000000pt" height="331.000000pt" viewBox="0 0 331.000000 331.000000"
 preserveAspectRatio="xMidYMid meet">

<g transform="translate(0.000000,331.000000) scale(0.100000,-0.100000)"
fill="#000000" stroke="none">
<path d="M2128 2875 c-11 -24 -12 -24 -35 -9 -25 16 -53 13 -53 -6 0 -5 9 -10
19 -10 34 0 49 -10 44 -31 -3 -10 -12 -19 -21 -19 -8 0 -12 -3 -9 -7 4 -3 -7
-14 -23 -24 -31 -19 -37 -33 -20 -44 5 -3 7 -12 4 -20 -5 -12 -12 -10 -38 10
-32 24 -33 24 -49 7 -22 -25 -21 -33 8 -61 30 -28 31 -42 5 -66 -20 -18 -21
-18 -48 8 -16 15 -31 27 -35 27 -13 0 -7 -21 13 -42 26 -29 26 -30 -15 -75
-19 -21 -35 -41 -35 -45 0 -5 140 -108 260 -190 67 -46 124 -88 192 -139 112
-85 125 -92 140 -80 73 60 80 64 88 50 5 -7 13 -10 17 -5 4 5 2 11 -4 13 -21
7 -15 22 30 87 52 73 147 246 147 268 0 9 -42 46 -92 84 -51 37 -165 121 -253
186 -88 64 -172 127 -187 138 -33 25 -36 25 -50 -5z m172 -192 c34 -18 65 -44
84 -71 27 -39 31 -52 31 -111 0 -59 -4 -72 -29 -105 -31 -42 -78 -66 -126 -66
-30 0 -31 1 -23 38 17 78 9 146 -26 216 -23 47 -38 66 -51 66 -29 0 -96 -90
-105 -142 -5 -28 -9 -36 -13 -23 -2 10 1 43 8 73 9 40 22 64 51 93 67 67 115
75 199 32z m228 -199 c17 -12 21 -21 16 -42 -4 -15 -12 -32 -19 -37 -7 -6 -16
-25 -19 -43 -4 -17 -12 -32 -17 -32 -12 0 -49 37 -49 50 0 6 9 19 20 30 11 11
20 26 20 34 0 20 17 29 23 14 2 -7 8 -10 12 -6 5 5 0 17 -10 28 -22 24 -9 26
23 4z m-73 -151 c16 -22 8 -43 -16 -43 -13 0 -19 -7 -19 -24 0 -36 -23 -50
-45 -26 -21 23 -13 50 15 50 12 0 18 5 15 10 -10 16 5 50 22 50 9 0 21 -8 28
-17z"/>
<path d="M2290 2653 c0 -4 9 -19 20 -33 28 -36 24 -85 -15 -175 -49 -112 -46
-126 21 -84 91 56 108 166 37 249 -26 32 -63 57 -63 43z"/>
<path d="M2466 2393 c-11 -11 -6 -23 9 -23 8 0 15 4 15 9 0 13 -16 22 -24 14z"/>
<path d="M2374 2269 c-10 -17 13 -36 27 -22 12 12 4 33 -11 33 -5 0 -12 -5
-16 -11z"/>
<path d="M1996 2771 c-4 -7 -5 -15 -2 -18 9 -9 19 4 14 18 -4 11 -6 11 -12 0z"/>
<path d="M1085 2611 c-47 -44 -132 -113 -188 -153 -127 -90 -109 -76 -192
-146 -156 -132 -366 -370 -406 -461 -8 -17 -17 -31 -20 -31 -4 0 -10 -8 -13
-17 -4 -11 4 -7 18 10 15 15 35 27 49 27 14 0 27 6 30 14 3 8 22 16 44 18 33
3 38 6 41 31 2 19 12 32 30 40 15 6 30 17 34 23 15 23 74 26 112 4 20 -11 36
-16 36 -11 0 5 10 11 23 13 31 4 33 39 7 93 -25 53 -23 75 8 86 18 7 28 4 46
-16 20 -21 25 -23 30 -9 6 16 -9 54 -27 65 -14 9 -1 39 17 39 8 0 27 -13 43
-30 15 -16 34 -30 40 -30 7 0 13 -4 13 -10 0 -5 7 -10 15 -10 10 0 15 10 15
34 0 23 8 44 25 62 29 31 37 28 40 -19 3 -33 44 -87 66 -87 5 0 7 32 3 83 -5
68 -3 92 14 143 12 33 25 88 31 122 10 61 31 100 90 164 13 15 22 30 19 34 -4
3 -45 -31 -93 -75z"/>
<path d="M2725 2420 c-10 -16 7 -31 23 -21 10 6 10 10 -2 20 -10 9 -16 9 -21
1z"/>
<path d="M1288 2323 c-51 -53 -68 -81 -68 -112 0 -31 28 -26 66 13 56 58 90
146 56 146 -4 0 -28 -21 -54 -47z"/>
<path d="M1015 1968 c4 -13 11 -27 16 -32 5 -6 9 -18 9 -27 0 -29 29 -31 36
-3 5 19 0 32 -22 55 -33 35 -48 37 -39 7z"/>
<path d="M357 1813 c-26 -26 19 -45 53 -23 13 9 13 11 0 20 -17 11 -44 13 -53
3z"/>
<path d="M467 1796 c-20 -30 -21 -36 -4 -36 7 0 28 -8 47 -19 19 -10 53 -21
75 -25 l40 -8 -20 24 c-32 38 -59 58 -79 58 -10 0 -24 7 -31 16 -10 14 -13 13
-28 -10z"/>
<path d="M1247 1773 c3 -21 14 -51 24 -68 16 -27 103 -109 135 -128 26 -15 24
13 -4 45 -16 18 -32 47 -35 63 -3 17 -15 51 -26 78 -19 45 -22 47 -60 47 l-40
0 6 -37z"/>
<path d="M1659 1784 c-12 -14 -11 -16 5 -13 11 2 21 10 24 17 5 17 -13 15 -29
-4z"/>
<path d="M212 1727 c-69 -84 -92 -115 -92 -121 0 -3 -9 -15 -21 -27 -30 -30
-17 -34 31 -9 66 33 223 65 318 64 45 -1 82 2 82 6 0 4 -8 17 -17 29 -16 19
-31 22 -110 26 -102 4 -120 9 -103 30 11 13 4 45 -11 45 -5 0 -9 -7 -9 -15 0
-8 -7 -15 -15 -15 -18 0 -19 12 -3 28 7 7 8 12 3 12 -6 0 -29 -24 -53 -53z"/>
<path d="M1552 1704 c-36 -24 -59 -49 -74 -79 -21 -44 -21 -46 -4 -100 9 -31
31 -71 48 -90 30 -35 58 -46 58 -22 0 6 19 23 41 37 46 28 79 83 79 132 0 36
-66 159 -84 157 -6 0 -35 -16 -64 -35z"/>
<path d="M692 1638 c7 -19 34 -32 54 -24 19 7 19 8 0 22 -24 17 -59 19 -54 2z"/>
<path d="M790 1531 c0 -33 44 -52 90 -40 12 3 15 -7 16 -43 2 -61 29 -87 93
-88 44 0 44 0 26 20 -10 12 -30 26 -44 34 -15 7 -24 19 -22 27 7 26 13 69 9
69 -2 0 -28 9 -58 20 -71 26 -110 26 -110 1z"/>
<path d="M2913 1455 c-3 -9 1 -23 10 -33 8 -9 17 -26 18 -36 6 -33 24 -17 23
19 -2 52 -37 86 -51 50z"/>
<path d="M1055 1360 c3 -5 8 -10 11 -10 2 0 4 5 4 10 0 6 -5 10 -11 10 -5 0
-7 -4 -4 -10z"/>
<path d="M1080 1340 c0 -5 5 -10 10 -10 6 0 10 5 10 10 0 6 -4 10 -10 10 -5 0
-10 -4 -10 -10z"/>
<path d="M2934 1255 c-25 -26 -26 -30 -21 -98 4 -50 12 -76 25 -89 18 -19 19
-17 25 93 4 62 5 115 2 117 -2 2 -16 -8 -31 -23z"/>
<path d="M859 1219 c-18 -26 -19 -33 -8 -40 20 -12 24 -11 44 11 10 11 24 20
32 20 22 0 15 16 -12 28 -34 15 -30 17 -56 -19z"/>
<path d="M1107 1226 c-20 -8 -44 -20 -53 -27 -23 -19 -66 -109 -60 -125 7 -19
100 -64 132 -64 29 0 114 45 114 60 0 5 7 16 15 24 9 9 22 28 30 43 13 24 12
29 -3 46 -40 44 -117 63 -175 43z"/>
<path d="M1647 1103 c-12 -11 -8 -23 8 -23 8 0 15 7 15 15 0 16 -12 20 -23 8z"/>
<path d="M901 946 c-8 -10 -9 -16 -1 -21 5 -3 13 1 16 10 9 22 -1 29 -15 11z"/>
</g>
</svg>
